<?xml version="1.0" standalone="no"?>
<!DOCTYPE svg PUBLIC "-//W3C//DTD SVG 20010904//EN"
 "http://www.w3.org/TR/2001/REC-SVG-20010904/DTD/svg10.dtd">
<svg version="1.0" xmlns="http://www.w3.org/2000/svg"
 width="700.000000pt" height="700.000000pt" viewBox="0 0 700.000000 700.000000"
 preserveAspectRatio="xMidYMid meet">
<metadata>
Created by potrace 1.14, written by Peter Selinger 2001-2017
</metadata>
<g transform="translate(0.000000,700.000000) scale(0.100000,-0.100000)"
fill="#000000" stroke="none">
<path d="M2195 5239 c-772 -72 -1540 -423 -2083 -952 l-112 -110 0 -2089 0
-2088 2784 0 2783 0 66 128 c196 381 311 754 373 1207 23 165 26 634 6 800
-86 698 -345 1312 -779 1844 -120 146 -353 376 -505 498 -546 437 -1200 700
-1898 763 -133 12 -504 11 -635 -1z m-877 -1659 c40 -40 55 -89 50 -165 -11
-180 -200 -252 -268 -102 -38 83 -20 186 45 253 38 41 45 44 93 44 43 0 55 -5
80 -30z m2670 -410 c74 -45 95 -175 44 -271 -64 -122 -187 -128 -243 -12 -45
93 -3 240 81 284 45 24 77 24 118 -1z m-2129 -635 c157 -25 570 -91 916 -145
347 -55 642 -102 656 -106 26 -5 26 -7 17 -47 -5 -23 -22 -69 -37 -102 -126
-268 -443 -435 -826 -435 -508 0 -959 295 -1041 680 -14 68 -19 182 -7 193 10
11 18 10 322 -38z"/>
</g>
</svg>
